<svg width="33" height="33" viewBox="0 0 33 33" fill="none" xmlns="http://www.w3.org/2000/svg">
<path d="M16.5 0C7.38633 0 0 7.38633 0 16.5C0 23.4932 4.35059 29.4615 10.4865 31.8656C10.3447 30.5572 10.2094 28.5592 10.5445 27.1348C10.8475 25.8457 12.4781 18.9363 12.4781 18.9363C12.4781 18.9363 11.9818 17.9502 11.9818 16.4871C11.9818 14.1926 13.3096 12.4781 14.966 12.4781C16.3711 12.4781 17.0543 13.5352 17.0543 14.8049C17.0543 16.2229 16.152 18.3369 15.6879 20.2963C15.3012 21.9398 16.5129 23.2805 18.1307 23.2805C21.0633 23.2805 23.3191 20.1867 23.3191 15.7266C23.3191 11.7756 20.4832 9.01055 16.4291 9.01055C11.7369 9.01055 8.97832 12.5297 8.97832 16.1713C8.97832 17.5893 9.52617 19.1104 10.2094 19.9354C10.3447 20.0965 10.3641 20.2447 10.3254 20.4059C10.2029 20.9279 9.91934 22.0494 9.86777 22.275C9.79688 22.5779 9.6293 22.6424 9.31348 22.4941C7.25098 21.5338 5.96191 18.5238 5.96191 16.1004C5.96191 10.8926 9.74531 6.1166 16.8609 6.1166C22.5844 6.1166 27.0316 10.1965 27.0316 15.6492C27.0316 21.334 23.448 25.9102 18.4723 25.9102C16.8029 25.9102 15.2303 25.04 14.6889 24.0152C14.6889 24.0152 13.8639 27.167 13.6641 27.9404C13.2902 29.3713 12.2848 31.1695 11.6145 32.2652C13.1613 32.7422 14.7984 33 16.5 33C25.6137 33 33 25.6137 33 16.5C33 7.38633 25.6137 0 16.5 0Z" fill="white"/>
</svg>
